<svg width="231" height="89" viewBox="0 0 231 89" fill="none" xmlns="http://www.w3.org/2000/svg">
<g clip-path="url(#clip0_1_333)">
<path d="M26.4653 44.125C26.4653 46.0035 25.7179 47.8053 24.3878 49.1336C23.0576 50.462 21.2533 51.2083 19.3723 51.2083C17.4912 51.2083 15.6869 50.462 14.3567 49.1336C13.0265 47.8053 12.2792 46.0035 12.2792 44.125C12.2792 42.2465 13.0265 40.4447 14.3567 39.1164C15.6869 37.788 17.4912 37.0417 19.3723 37.0417C21.2533 37.0417 23.0576 37.788 24.3878 39.1164C25.7179 40.4447 26.4653 42.2465 26.4653 44.125Z" stroke="black" stroke-width="3" stroke-linecap="round" stroke-linejoin="round"/>
<path d="M37.1049 44.125C37.1049 60.988 19.3723 70.6875 19.3723 70.6875C19.3723 70.6875 1.6396 60.988 1.6396 44.125C1.6396 39.4285 3.50786 34.9242 6.83337 31.6033C10.1589 28.2824 14.6693 26.4167 19.3723 26.4167C24.0752 26.4167 28.5857 28.2824 31.9111 31.6033C35.2366 34.9242 37.1049 39.4285 37.1049 44.125Z" stroke="black" stroke-width="3" stroke-linecap="round" stroke-linejoin="round"/>
<path d="M82.6634 43.3104V68.9167H80.2163C79.838 68.9167 79.5188 68.8576 79.2587 68.7396C79.0105 68.6097 78.7681 68.3972 78.5317 68.1021L65.1435 51.0312C65.2145 51.8104 65.2499 52.5306 65.2499 53.1917V68.9167H61.0473V43.3104H63.5476C63.7486 43.3104 63.92 43.3222 64.0619 43.3458C64.2155 43.3576 64.3456 43.3931 64.452 43.4521C64.5702 43.4993 64.6825 43.576 64.7889 43.6823C64.8953 43.7767 65.0135 43.9066 65.1435 44.0719L78.5849 61.2135C78.5494 60.8003 78.5199 60.3931 78.4962 59.9917C78.4726 59.5903 78.4608 59.2184 78.4608 58.876V43.3104H82.6634ZM98.8493 57.7427C98.8493 57.176 98.7666 56.6448 98.6011 56.149C98.4474 55.6413 98.2109 55.1986 97.8918 54.8208C97.5726 54.4431 97.1647 54.1479 96.6682 53.9354C96.1835 53.7111 95.6161 53.599 94.9659 53.599C93.7009 53.599 92.702 53.959 91.969 54.6792C91.2479 55.3993 90.7869 56.4205 90.5859 57.7427H98.8493ZM90.4972 60.3813C90.5682 61.3139 90.7337 62.1226 90.9937 62.8073C91.2538 63.4802 91.5967 64.041 92.0222 64.4896C92.4478 64.9264 92.9502 65.2569 93.5295 65.4812C94.1206 65.6938 94.7708 65.8 95.4801 65.8C96.1894 65.8 96.7982 65.7174 97.3066 65.5521C97.8267 65.3868 98.276 65.2038 98.6543 65.0031C99.0444 64.8024 99.3813 64.6194 99.665 64.4542C99.9606 64.2889 100.244 64.2062 100.516 64.2062C100.883 64.2062 101.155 64.342 101.332 64.6135L102.591 66.2073C102.106 66.774 101.562 67.2521 100.959 67.6417C100.357 68.0194 99.7241 68.3264 99.0621 68.5625C98.4119 68.7868 97.744 68.9462 97.0583 69.0406C96.3845 69.1351 95.7284 69.1823 95.09 69.1823C93.8251 69.1823 92.6488 68.9757 91.5612 68.5625C90.4736 68.1375 89.5278 67.5177 88.724 66.7031C87.9201 65.8767 87.2876 64.8615 86.8266 63.6573C86.3655 62.4413 86.135 61.0365 86.135 59.4427C86.135 58.2031 86.336 57.0403 86.7379 55.9542C87.1398 54.8562 87.7132 53.9059 88.458 53.1031C89.2146 52.2885 90.1307 51.6451 91.2065 51.1729C92.2941 50.7007 93.5177 50.4646 94.8772 50.4646C96.0239 50.4646 97.082 50.6476 98.0513 51.0135C99.0207 51.3795 99.8542 51.9167 100.552 52.625C101.249 53.3215 101.793 54.1833 102.183 55.2104C102.585 56.2257 102.786 57.3885 102.786 58.699C102.786 59.3601 102.715 59.8087 102.573 60.0448C102.431 60.2691 102.159 60.3813 101.757 60.3813H90.4972ZM122.039 68.9167H117.819C117.499 68.9167 117.239 68.834 117.038 68.6688C116.849 68.5035 116.69 68.3146 116.56 68.1021L112.712 61.7802C112.652 61.9809 112.581 62.1698 112.499 62.3469C112.428 62.524 112.345 62.6892 112.25 62.8427L108.846 68.1021C108.716 68.3028 108.556 68.4917 108.367 68.6688C108.178 68.834 107.941 68.9167 107.658 68.9167H103.739L109.981 59.549L103.987 50.7479H108.207C108.527 50.7479 108.763 50.7951 108.917 50.8896C109.07 50.9722 109.206 51.1139 109.325 51.3146L113.137 57.3708C113.267 56.9694 113.45 56.574 113.687 56.1844L116.755 51.4031C117.015 50.9663 117.352 50.7479 117.765 50.7479H121.791L115.815 59.3542L122.039 68.9167ZM130.39 69.2C128.805 69.2 127.588 68.7573 126.737 67.8719C125.897 66.9746 125.478 65.741 125.478 64.1708V54.024H123.616C123.379 54.024 123.178 53.9472 123.013 53.7937C122.847 53.6403 122.765 53.4101 122.765 53.1031V51.3677L125.69 50.8896L126.613 45.9312C126.672 45.6951 126.784 45.5122 126.949 45.3823C127.115 45.2524 127.328 45.1875 127.588 45.1875H129.858V50.9073H134.716V54.024H129.858V63.8698C129.858 64.4365 129.994 64.8792 130.265 65.1979C130.549 65.5167 130.933 65.676 131.418 65.676C131.69 65.676 131.915 65.6465 132.092 65.5875C132.281 65.5167 132.441 65.4458 132.571 65.375C132.713 65.3042 132.837 65.2392 132.943 65.1802C133.049 65.1094 133.156 65.074 133.262 65.074C133.392 65.074 133.499 65.1094 133.581 65.1802C133.664 65.2392 133.753 65.3337 133.847 65.4635L135.16 67.5885C134.521 68.1198 133.788 68.5212 132.961 68.7927C132.133 69.0642 131.276 69.2 130.39 69.2ZM153.005 47.224H145.274V68.9167H140.504V47.224H132.772V43.3104H153.005V47.224ZM156.233 53.9C156.801 52.8139 157.475 51.9639 158.255 51.35C159.035 50.7243 159.957 50.4115 161.021 50.4115C161.861 50.4115 162.534 50.5944 163.043 50.9604L162.759 54.2365C162.7 54.449 162.611 54.6024 162.493 54.6969C162.387 54.7795 162.239 54.8208 162.05 54.8208C161.872 54.8208 161.606 54.7913 161.252 54.7323C160.909 54.6733 160.572 54.6437 160.241 54.6437C159.756 54.6437 159.325 54.7146 158.946 54.8562C158.568 54.9979 158.225 55.2045 157.918 55.476C157.622 55.7358 157.356 56.0545 157.12 56.4323C156.895 56.8101 156.683 57.241 156.482 57.725V68.9167H152.102V50.7479H154.673C155.122 50.7479 155.435 50.8306 155.613 50.9958C155.79 51.1493 155.908 51.4326 155.967 51.8458L156.233 53.9ZM174.7 61.1604C173.435 61.2194 172.372 61.3316 171.509 61.4969C170.646 61.6503 169.954 61.851 169.434 62.099C168.914 62.3469 168.541 62.6361 168.317 62.9667C168.092 63.2972 167.98 63.6573 167.98 64.0469C167.98 64.8142 168.204 65.3632 168.654 65.6938C169.115 66.0243 169.712 66.1896 170.445 66.1896C171.343 66.1896 172.117 66.0302 172.768 65.7115C173.43 65.3809 174.074 64.8851 174.7 64.224V61.1604ZM164.664 53.2802C166.756 51.3677 169.274 50.4115 172.218 50.4115C173.282 50.4115 174.233 50.5885 175.073 50.9427C175.912 51.2851 176.621 51.7691 177.201 52.3948C177.78 53.0087 178.217 53.7465 178.513 54.6083C178.82 55.4701 178.974 56.4146 178.974 57.4417V68.9167H176.988C176.574 68.9167 176.255 68.8576 176.03 68.7396C175.806 68.6097 175.628 68.3559 175.498 67.9781L175.108 66.6677C174.647 67.0809 174.198 67.4469 173.761 67.7656C173.323 68.0726 172.868 68.3323 172.395 68.5448C171.922 68.7573 171.414 68.9167 170.87 69.0229C170.338 69.141 169.747 69.2 169.097 69.2C168.328 69.2 167.619 69.0997 166.969 68.899C166.319 68.6865 165.757 68.3736 165.284 67.9604C164.811 67.5472 164.445 67.0337 164.185 66.4198C163.925 65.8059 163.795 65.0917 163.795 64.2771C163.795 63.8167 163.872 63.3622 164.025 62.9135C164.179 62.4531 164.427 62.0163 164.77 61.6031C165.125 61.1899 165.58 60.8003 166.136 60.4344C166.691 60.0684 167.371 59.7497 168.175 59.4781C168.99 59.2066 169.936 58.9882 171.012 58.8229C172.088 58.6458 173.317 58.5396 174.7 58.5042V57.4417C174.7 56.2257 174.44 55.3285 173.92 54.75C173.4 54.1597 172.649 53.8646 171.668 53.8646C170.959 53.8646 170.368 53.9472 169.895 54.1125C169.434 54.2778 169.026 54.4667 168.671 54.6792C168.317 54.8799 167.992 55.0628 167.696 55.2281C167.412 55.3934 167.093 55.476 166.738 55.476C166.431 55.476 166.171 55.3993 165.958 55.2458C165.745 55.0806 165.574 54.8917 165.444 54.6792L164.664 53.2802ZM199.086 50.7479L191.869 68.9167H187.897L180.68 50.7479H184.297C184.628 50.7479 184.9 50.8247 185.113 50.9781C185.337 51.1316 185.485 51.3264 185.556 51.5625L189.067 61.2667C189.256 61.8333 189.422 62.3882 189.564 62.9312C189.706 63.4743 189.83 64.0174 189.936 64.5604C190.054 64.0174 190.184 63.4743 190.326 62.9312C190.468 62.3882 190.639 61.8333 190.84 61.2667L194.422 51.5625C194.505 51.3264 194.653 51.1316 194.866 50.9781C195.079 50.8247 195.333 50.7479 195.628 50.7479H199.086ZM212.588 57.7427C212.588 57.176 212.505 56.6448 212.339 56.149C212.186 55.6413 211.949 55.1986 211.63 54.8208C211.311 54.4431 210.903 54.1479 210.407 53.9354C209.922 53.7111 209.354 53.599 208.704 53.599C207.439 53.599 206.44 53.959 205.707 54.6792C204.986 55.3993 204.525 56.4205 204.324 57.7427H212.588ZM204.236 60.3813C204.307 61.3139 204.472 62.1226 204.732 62.8073C204.992 63.4802 205.335 64.041 205.761 64.4896C206.186 64.9264 206.689 65.2569 207.268 65.4812C207.859 65.6938 208.509 65.8 209.219 65.8C209.928 65.8 210.537 65.7174 211.045 65.5521C211.565 65.3868 212.014 65.2038 212.393 65.0031C212.783 64.8024 213.12 64.6194 213.403 64.4542C213.699 64.2889 213.983 64.2062 214.255 64.2062C214.621 64.2062 214.893 64.342 215.07 64.6135L216.329 66.2073C215.845 66.774 215.301 67.2521 214.698 67.6417C214.095 68.0194 213.463 68.3264 212.801 68.5625C212.15 68.7868 211.482 68.9462 210.797 69.0406C210.123 69.1351 209.467 69.1823 208.828 69.1823C207.564 69.1823 206.387 68.9757 205.3 68.5625C204.212 68.1375 203.266 67.5177 202.462 66.7031C201.659 65.8767 201.026 64.8615 200.565 63.6573C200.104 62.4413 199.873 61.0365 199.873 59.4427C199.873 58.2031 200.074 57.0403 200.476 55.9542C200.878 54.8562 201.452 53.9059 202.196 53.1031C202.953 52.2885 203.869 51.6451 204.945 51.1729C206.033 50.7007 207.256 50.4646 208.616 50.4646C209.762 50.4646 210.82 50.6476 211.79 51.0135C212.759 51.3795 213.593 51.9167 214.29 52.625C214.988 53.3215 215.531 54.1833 215.921 55.2104C216.323 56.2257 216.524 57.3885 216.524 58.699C216.524 59.3601 216.453 59.8087 216.312 60.0448C216.17 60.2691 215.898 60.3813 215.496 60.3813H204.236ZM224.245 42.6021V68.9167H219.865V42.6021H224.245Z" fill="black"/>
<path d="M59.5663 37.0417C84.392 5.16667 169.509 64.1945 214.431 16.9722" stroke="black"/>
<path d="M226.556 1.41713C227.434 0.510678 229.637 -0.415137 230.45 0.370758C231.287 1.17913 230.407 3.38488 229.528 4.29134L226.532 7.38175L228.034 13.9952C228.121 14.3708 227.989 14.7887 227.693 15.0935L226.249 16.5831C225.977 16.8641 225.542 16.8391 225.38 16.5333L222.654 11.3813L220.012 14.1059L220.24 16.5444C220.256 16.7137 220.188 16.8948 220.06 17.0272L218.98 18.1405C218.78 18.3471 218.474 18.37 218.295 18.1972C218.265 18.1679 218.24 18.1334 218.218 18.0964L216.47 14.7891L213.104 13.1518C213.063 13.1332 213.031 13.1066 213.001 13.0775C212.819 12.9023 212.837 12.5961 213.035 12.392L214.114 11.2789C214.243 11.1463 214.422 11.073 214.592 11.0833L217.04 11.2317L219.684 8.50441L214.44 5.9499C214.126 5.80037 214.087 5.36725 214.359 5.0863L215.804 3.59675C216.099 3.29195 216.515 3.15023 216.892 3.22145L223.559 4.50754L226.556 1.41713Z" fill="black"/>
</g>
<path d="M66.623 81.8389V85H63.8809V81.877L61.0752 75.8975H64.2236L65.2075 78.7603C65.2752 78.9549 65.3218 79.1242 65.3472 79.2681C65.3768 79.4119 65.4085 79.5579 65.4424 79.7061H65.4678C65.5228 79.321 65.5841 79.0226 65.6519 78.811L66.623 75.8975H69.5239L66.623 81.8389ZM77.4077 81.6357C77.4077 82.7318 77.0755 83.5929 76.4111 84.2192C75.751 84.8455 74.8263 85.1587 73.6372 85.1587C72.4565 85.1587 71.5361 84.854 70.876 84.2446C70.2201 83.631 69.8921 82.7868 69.8921 81.7119C69.8921 81.0221 70.0465 80.4233 70.3555 79.9155C70.6644 79.4077 71.1045 79.0184 71.6758 78.7476C72.2471 78.4767 72.9051 78.3413 73.6499 78.3413C74.4201 78.3413 75.0866 78.4831 75.6494 78.7666C76.2165 79.0501 76.6502 79.4437 76.9507 79.9473C77.2554 80.4508 77.4077 81.0137 77.4077 81.6357ZM74.6655 81.6484C74.6655 80.764 74.327 80.3218 73.6499 80.3218C72.9728 80.3218 72.6343 80.7852 72.6343 81.7119C72.6343 82.6895 72.9771 83.1782 73.6626 83.1782C74.3312 83.1782 74.6655 82.6683 74.6655 81.6484ZM82.5557 85V83.9971H82.5303C82.306 84.306 82.1029 84.5324 81.9209 84.6763C81.7432 84.8201 81.54 84.9365 81.3115 85.0254C81.0872 85.1143 80.8249 85.1587 80.5244 85.1587C79.8135 85.1587 79.2718 84.9281 78.8994 84.4668C78.527 84.0055 78.3408 83.3242 78.3408 82.4229V78.5H81.0449V82.2197C81.0449 82.8587 81.284 83.1782 81.7622 83.1782C82.0246 83.1782 82.2214 83.0915 82.3525 82.918C82.488 82.7445 82.5557 82.499 82.5557 82.1816V78.5H85.2598V85H82.5557ZM91.4424 80.8169C91.3408 80.7703 91.2033 80.728 91.0298 80.6899C90.8563 80.6519 90.7124 80.6328 90.5981 80.6328C89.7052 80.6328 89.2588 81.1491 89.2588 82.1816V85H86.5547V78.5H89.2588V79.6426H89.2842C89.4492 79.2321 89.6841 78.9211 89.9888 78.7095C90.2935 78.4937 90.6489 78.3857 91.0552 78.3857C91.2033 78.3857 91.3324 78.4111 91.4424 78.4619V80.8169ZM101.053 81.1152C101.053 83.8109 99.743 85.1587 97.1235 85.1587C96.9119 85.1587 96.658 85.1333 96.3618 85.0825C96.0656 85.0317 95.7651 84.9556 95.4604 84.854V82.3213C95.6763 82.4694 95.9154 82.59 96.1777 82.6831C96.4443 82.772 96.6644 82.8164 96.8379 82.8164C97.3288 82.8164 97.6948 82.6662 97.936 82.3657C98.1815 82.061 98.3042 81.5913 98.3042 80.9565V75.8975H101.053V81.1152ZM109.73 81.6357C109.73 82.7318 109.398 83.5929 108.733 84.2192C108.073 84.8455 107.149 85.1587 105.959 85.1587C104.779 85.1587 103.858 84.854 103.198 84.2446C102.542 83.631 102.214 82.7868 102.214 81.7119C102.214 81.0221 102.369 80.4233 102.678 79.9155C102.987 79.4077 103.427 79.0184 103.998 78.7476C104.569 78.4767 105.227 78.3413 105.972 78.3413C106.742 78.3413 107.409 78.4831 107.972 78.7666C108.539 79.0501 108.972 79.4437 109.273 79.9473C109.578 80.4508 109.73 81.0137 109.73 81.6357ZM106.988 81.6484C106.988 80.764 106.649 80.3218 105.972 80.3218C105.295 80.3218 104.957 80.7852 104.957 81.7119C104.957 82.6895 105.299 83.1782 105.985 83.1782C106.653 83.1782 106.988 82.6683 106.988 81.6484ZM114.878 85V83.9971H114.853C114.628 84.306 114.425 84.5324 114.243 84.6763C114.065 84.8201 113.862 84.9365 113.634 85.0254C113.41 85.1143 113.147 85.1587 112.847 85.1587C112.136 85.1587 111.594 84.9281 111.222 84.4668C110.849 84.0055 110.663 83.3242 110.663 82.4229V78.5H113.367V82.2197C113.367 82.8587 113.606 83.1782 114.084 83.1782C114.347 83.1782 114.544 83.0915 114.675 82.918C114.81 82.7445 114.878 82.499 114.878 82.1816V78.5H117.582V85H114.878ZM123.765 80.8169C123.663 80.7703 123.526 80.728 123.352 80.6899C123.179 80.6519 123.035 80.6328 122.92 80.6328C122.028 80.6328 121.581 81.1491 121.581 82.1816V85H118.877V78.5H121.581V79.6426H121.606C121.771 79.2321 122.006 78.9211 122.311 78.7095C122.616 78.4937 122.971 78.3857 123.377 78.3857C123.526 78.3857 123.655 78.4111 123.765 78.4619V80.8169ZM128.767 85V81.4517C128.767 81.0496 128.705 80.7619 128.583 80.5884C128.464 80.4106 128.269 80.3218 127.999 80.3218C127.766 80.3218 127.584 80.4128 127.453 80.5947C127.321 80.7767 127.256 81.0094 127.256 81.293V85H124.552V78.5H127.256V79.5156H127.281C127.497 79.1432 127.787 78.8555 128.151 78.6523C128.515 78.445 128.91 78.3413 129.338 78.3413C130.76 78.3413 131.471 79.2384 131.471 81.0327V85H128.767ZM135.019 82.5181C135.066 82.7974 135.226 83.0174 135.501 83.1782C135.777 83.3348 136.14 83.4131 136.593 83.4131C137.224 83.4131 137.82 83.2925 138.383 83.0513V84.7651C137.727 85.0275 136.932 85.1587 135.997 85.1587C134.862 85.1587 133.98 84.8688 133.35 84.2891C132.719 83.7093 132.404 82.9116 132.404 81.896C132.404 81.1978 132.541 80.582 132.816 80.0488C133.096 79.5156 133.506 79.0988 134.048 78.7983C134.594 78.4937 135.195 78.3413 135.851 78.3413C136.523 78.3413 137.099 78.4725 137.577 78.7349C138.055 78.9972 138.417 79.3654 138.663 79.8394C138.912 80.3133 139.037 80.8677 139.037 81.5024V82.5181H135.019ZM136.644 81.1025C136.644 80.3535 136.375 79.979 135.838 79.979C135.614 79.979 135.425 80.0827 135.273 80.29C135.121 80.4932 135.032 80.764 135.006 81.1025H136.644ZM141.24 88.0532C140.986 88.0532 140.713 88.0299 140.421 87.9834C140.129 87.9411 139.869 87.8776 139.64 87.793V85.7554C139.746 85.8358 139.903 85.9098 140.11 85.9775C140.321 86.0452 140.52 86.0791 140.707 86.0791C141.21 86.0791 141.544 85.8802 141.709 85.4824L141.919 84.9746L139.202 78.5H142.192L142.979 81.6357C143.131 82.2197 143.214 82.6133 143.227 82.8164H143.252C143.265 82.7233 143.282 82.6196 143.303 82.5054C143.328 82.3911 143.658 81.056 144.293 78.5H146.921L144.528 85.1841C144.168 86.2082 143.722 86.9424 143.188 87.3867C142.66 87.8311 142.01 88.0532 141.24 88.0532ZM149.25 86.5107H147.067L147.714 83.2734H150.158L149.25 86.5107ZM160.124 81.8389V85H157.382V81.877L154.576 75.8975H157.725L158.708 78.7603C158.776 78.9549 158.823 79.1242 158.848 79.2681C158.878 79.4119 158.91 79.5579 158.943 79.7061H158.969C159.024 79.321 159.085 79.0226 159.153 78.811L160.124 75.8975H163.025L160.124 81.8389ZM170.909 81.6357C170.909 82.7318 170.576 83.5929 169.912 84.2192C169.252 84.8455 168.327 85.1587 167.138 85.1587C165.958 85.1587 165.037 84.854 164.377 84.2446C163.721 83.631 163.393 82.7868 163.393 81.7119C163.393 81.0221 163.548 80.4233 163.856 79.9155C164.165 79.4077 164.605 79.0184 165.177 78.7476C165.748 78.4767 166.406 78.3413 167.151 78.3413C167.921 78.3413 168.588 78.4831 169.15 78.7666C169.717 79.0501 170.151 79.4437 170.452 79.9473C170.756 80.4508 170.909 81.0137 170.909 81.6357ZM168.167 81.6484C168.167 80.764 167.828 80.3218 167.151 80.3218C166.474 80.3218 166.135 80.7852 166.135 81.7119C166.135 82.6895 166.478 83.1782 167.164 83.1782C167.832 83.1782 168.167 82.6683 168.167 81.6484ZM176.057 85V83.9971H176.031C175.807 84.306 175.604 84.5324 175.422 84.6763C175.244 84.8201 175.041 84.9365 174.812 85.0254C174.588 85.1143 174.326 85.1587 174.025 85.1587C173.314 85.1587 172.773 84.9281 172.4 84.4668C172.028 84.0055 171.842 83.3242 171.842 82.4229V78.5H174.546V82.2197C174.546 82.8587 174.785 83.1782 175.263 83.1782C175.526 83.1782 175.722 83.0915 175.854 82.918C175.989 82.7445 176.057 82.499 176.057 82.1816V78.5H178.761V85H176.057ZM184.943 80.8169C184.842 80.7703 184.704 80.728 184.531 80.6899C184.357 80.6519 184.213 80.6328 184.099 80.6328C183.206 80.6328 182.76 81.1491 182.76 82.1816V85H180.056V78.5H182.76V79.6426H182.785C182.95 79.2321 183.185 78.9211 183.49 78.7095C183.794 78.4937 184.15 78.3857 184.556 78.3857C184.704 78.3857 184.833 78.4111 184.943 78.4619V80.8169ZM199.962 85H197.048L195.785 79.814C195.747 79.6659 195.705 79.2977 195.658 78.7095H195.633C195.569 79.23 195.508 79.5981 195.449 79.814L194.084 85H190.999L188.828 75.8975H191.837L192.599 81.2549C192.611 81.3226 192.63 81.5194 192.656 81.8452L192.694 82.3721H192.732C192.74 82.262 192.766 82.0758 192.808 81.8135C192.85 81.5469 192.891 81.348 192.929 81.2168L194.332 75.8975H197.321L198.489 81.293L198.572 81.8325L198.635 82.3594H198.661L198.68 82.1372L198.762 81.2549L199.556 75.8975H202.26L199.962 85ZM206.652 85V84.0098H206.627C206.195 84.7757 205.535 85.1587 204.646 85.1587C204.033 85.1587 203.553 84.9767 203.206 84.6128C202.859 84.2489 202.685 83.7622 202.685 83.1528C202.685 81.8748 203.47 81.1343 205.04 80.9312L206.652 80.7217C206.652 80.5101 206.557 80.3366 206.367 80.2012C206.176 80.0658 205.92 79.998 205.599 79.998C204.871 79.998 204.103 80.2054 203.294 80.6201V78.8618C203.646 78.7095 204.086 78.5846 204.615 78.4873C205.144 78.39 205.597 78.3413 205.973 78.3413C207.078 78.3413 207.877 78.5783 208.373 79.0522C208.872 79.522 209.122 80.3091 209.122 81.4136V85H206.652ZM205.053 82.791C205.053 82.9688 205.108 83.1147 205.218 83.229C205.332 83.3433 205.493 83.4004 205.7 83.4004C205.984 83.4004 206.212 83.2946 206.386 83.083C206.563 82.8714 206.652 82.6006 206.652 82.2705V82.0229L205.738 82.1499C205.281 82.2261 205.053 82.4398 205.053 82.791ZM211.61 88.0532C211.356 88.0532 211.083 88.0299 210.791 87.9834C210.499 87.9411 210.239 87.8776 210.01 87.793V85.7554C210.116 85.8358 210.273 85.9098 210.48 85.9775C210.692 86.0452 210.89 86.0791 211.077 86.0791C211.58 86.0791 211.915 85.8802 212.08 85.4824L212.289 84.9746L209.572 78.5H212.562L213.349 81.6357C213.501 82.2197 213.584 82.6133 213.597 82.8164H213.622C213.635 82.7233 213.652 82.6196 213.673 82.5054C213.698 82.3911 214.028 81.056 214.663 78.5H217.291L214.898 85.1841C214.538 86.2082 214.092 86.9424 213.559 87.3867C213.03 87.8311 212.38 88.0532 211.61 88.0532ZM220.611 81.9341H218.44L218.097 75.8975H220.947L220.611 81.9341ZM221.049 83.8701C221.049 84.2467 220.911 84.5557 220.636 84.7969C220.365 85.0381 220.001 85.1587 219.544 85.1587C219.1 85.1587 218.736 85.036 218.453 84.7905C218.173 84.5451 218.034 84.2383 218.034 83.8701C218.034 83.4977 218.169 83.1973 218.44 82.9688C218.715 82.736 219.083 82.6196 219.544 82.6196C219.993 82.6196 220.355 82.736 220.63 82.9688C220.909 83.1973 221.049 83.4977 221.049 83.8701Z" fill="black"/>
<defs>
<clipPath id="clip0_1_333">
<rect width="231" height="73" fill="white"/>
</clipPath>
</defs>
</svg>
