<svg width="1024" height="1024" viewBox="0 0 1024 1024" fill="none" xmlns="http://www.w3.org/2000/svg">
<rect width="1024" height="1024" fill="#1E1E1E"/>
<path d="M507.149 767.984L588.044 760.379C571.167 604.672 547.136 524.103 438.895 410.575L403.503 420.715C473.959 486.2 520.322 706.813 507.149 767.984Z" fill="#A26E3D"/>
<path d="M686.634 419.815H734.665C691.852 277.188 449.52 280.955 418.671 419.815H479.342L494.509 371.653L507.149 419.815H565.292L584.581 371.653L595.627 419.815H661.354L676.522 371.653L686.634 419.815Z" fill="#1F871F"/>
<path d="M606.752 230.306L640.715 196.251C509.863 125.754 341.165 300.237 417.274 420.298L460.175 377.281L436.937 332.472L479.838 357.565L520.951 316.34L500.627 268.609L542.401 294.832L588.877 248.23L565.639 203.42L606.752 230.306Z" fill="#37AA37"/>
<path d="M384.293 453.369L418.256 419.314C287.403 348.817 118.705 523.301 194.814 643.362L237.715 600.345L214.477 555.535L257.378 580.628L298.491 539.404L278.167 491.672L319.941 517.895L366.417 471.293L343.179 426.484L384.293 453.369Z" fill="#37AA37"/>
<path d="M373.168 419.815H421.199C378.386 277.188 136.054 280.955 105.205 419.815H165.876L181.044 371.653L193.683 419.815H251.826L271.115 371.653L282.162 419.815H347.888L363.056 371.653L373.168 419.815Z" fill="#1F871F"/>
<path d="M706.521 771.252L667.092 767.545C675.318 691.652 687.031 652.382 739.788 597.048L757.038 601.99C722.698 633.908 700.1 741.436 706.521 771.252Z" fill="#A26E3D"/>
<path d="M619.038 601.551H595.628C616.495 532.034 734.609 533.87 749.646 601.551H720.074L712.681 578.077L706.521 601.551H678.181L668.78 578.077L663.395 601.551H631.36L623.967 578.077L619.038 601.551Z" fill="#1F871F"/>
<path d="M657.973 509.183L641.419 492.584C705.198 458.223 787.423 543.268 750.326 601.787L729.416 580.82L740.743 558.979L719.832 571.21L699.794 551.117L709.7 527.852L689.338 540.633L666.686 517.919L678.012 496.079L657.973 509.183Z" fill="#37AA37"/>
<path d="M766.402 617.906L749.848 601.307C813.627 566.946 895.851 651.991 858.755 710.51L837.845 689.543L849.172 667.702L828.261 679.933L808.222 659.84L818.128 636.575L797.767 649.356L775.115 626.642L786.441 604.801L766.402 617.906Z" fill="#37AA37"/>
<path d="M771.824 601.551H748.413C769.281 532.034 887.395 533.87 902.431 601.551H872.86L865.467 578.077L859.306 601.551H830.967L821.566 578.077L816.181 601.551H784.146L776.753 578.077L771.824 601.551Z" fill="#1F871F"/>
<path d="M919.205 1024C919.205 988.715 911.032 953.776 895.151 921.177C879.271 888.578 855.995 858.958 826.653 834.007C797.31 809.057 762.475 789.266 724.137 775.763C685.799 762.26 644.708 755.31 603.211 755.31C561.714 755.31 520.624 762.26 482.286 775.763C443.948 789.266 409.113 809.057 379.77 834.007C350.427 858.958 327.151 888.578 311.271 921.177C295.391 953.776 287.217 988.715 287.217 1024L919.205 1024Z" fill="#FAEAB5"/>
<path d="M770.489 147.033L797.81 120.66L806.989 83.813L821.42 92.1445L821.353 120.509L858.048 141.695L871.119 70.8117L885.687 79.2227L877.976 153.201C926.496 179.557 945.56 193.99 941.293 203.5C935.19 211.951 913.159 202.657 866.074 173.816L805.863 217.483L791.294 209.072L846.146 162.311L809.45 141.124L784.92 155.365L770.489 147.033Z" fill="white"/>
<path d="M742.562 96.4111C444.518 -0.718591 292.6 28.1066 43 196.647" stroke="white" stroke-width="5" stroke-dasharray="50 50"/>
</svg>
