<svg width="400" height="400" viewBox="0 0 400 400" fill="none" xmlns="http://www.w3.org/2000/svg">
<rect width="400" height="400" rx="20" fill="#1E1E1E"/>
<path d="M198.112 304.449L228.323 301.611C222.02 243.497 213.046 213.427 172.621 171.056L159.404 174.84C185.716 199.281 203.031 281.618 198.112 304.449Z" fill="#A26E3D"/>
<path d="M265.143 174.504H283.081C267.092 121.273 176.589 122.679 165.068 174.504H187.727L193.391 156.529L198.112 174.504H219.826L227.03 156.529L231.155 174.504H255.702L261.366 156.529L265.143 174.504Z" fill="#1F871F"/>
<path d="M235.31 103.775L247.994 91.0651C199.125 64.7541 136.123 129.875 164.547 174.685L180.568 158.63L171.89 141.906L187.912 151.271L203.266 135.885L195.676 118.071L211.277 127.858L228.634 110.465L219.956 93.7409L235.31 103.775Z" fill="#37AA37"/>
<path d="M152.229 187.028L164.913 174.317C116.044 148.006 53.0419 213.128 81.4658 257.937L97.4877 241.882L88.8092 225.158L104.831 234.524L120.185 219.138L112.595 201.323L128.196 211.11L145.553 193.717L136.875 176.993L152.229 187.028Z" fill="#37AA37"/>
<path d="M148.075 174.504H166.012C150.023 121.273 59.5211 122.679 48 174.504H70.6584L76.323 156.529L81.0435 174.504H102.758L109.961 156.529L114.087 174.504H138.634L144.298 156.529L148.075 174.504Z" fill="#1F871F"/>
<path d="M272.57 305.669L257.845 304.285C260.917 275.96 265.291 261.304 284.994 240.652L291.437 242.496C278.612 254.409 270.172 294.541 272.57 305.669Z" fill="#A26E3D"/>
<path d="M239.898 242.332H231.155C238.949 216.387 283.06 217.072 288.676 242.332H277.632L274.871 233.571L272.57 242.332H261.986L258.475 233.571L256.464 242.332H244.5L241.739 233.571L239.898 242.332Z" fill="#1F871F"/>
<path d="M254.439 207.859L248.257 201.663C272.076 188.839 302.784 220.58 288.93 242.42L281.121 234.595L285.351 226.444L277.541 231.008L270.058 223.509L273.757 214.826L266.153 219.597L257.693 211.119L261.923 202.968L254.439 207.859Z" fill="#37AA37"/>
<path d="M294.933 248.436L288.751 242.241C312.57 229.417 343.278 261.158 329.424 282.998L321.615 275.173L325.845 267.022L318.036 271.586L310.552 264.087L314.251 255.404L306.647 260.174L298.187 251.697L302.417 243.546L294.933 248.436Z" fill="#37AA37"/>
<path d="M296.958 242.332H288.215C296.009 216.387 340.12 217.072 345.736 242.332H334.692L331.931 233.571L329.63 242.332H319.046L315.535 233.571L313.524 242.332H301.56L298.799 233.571L296.958 242.332Z" fill="#1F871F"/>
<path d="M352 400C352 386.831 348.947 373.791 343.017 361.624C337.086 349.457 328.393 338.402 317.435 329.09C306.477 319.778 293.467 312.392 279.149 307.352C264.831 302.313 249.485 299.719 233.988 299.719C218.49 299.719 203.144 302.313 188.826 307.352C174.508 312.392 161.499 319.778 150.54 329.09C139.582 338.402 130.889 349.457 124.958 361.624C119.028 373.791 115.975 386.831 115.975 400L352 400Z" fill="#FAEAB5"/>
<path d="M296.549 72.579L306.747 62.7347L310.174 48.9808L315.56 52.0907L315.535 62.6783L329.233 70.5865L334.112 44.1278L339.549 47.2674L336.671 74.8811C354.782 84.7192 361.898 90.1065 360.305 93.6563C358.027 96.8108 349.804 93.3418 332.228 82.5762L309.753 98.8757L304.315 95.7362L324.79 78.2815L311.092 70.3734L301.936 75.689L296.549 72.579Z" fill="white"/>
<path d="M286.125 53.6832C174.874 17.4277 118.168 28.1873 25 91.0982" stroke="white" stroke-dasharray="20 20"/>
</svg>
